<?xml version="1.0" standalone="no"?>
<!DOCTYPE svg PUBLIC "-//W3C//DTD SVG 20010904//EN"
 "http://www.w3.org/TR/2001/REC-SVG-20010904/DTD/svg10.dtd">
<svg version="1.0" xmlns="http://www.w3.org/2000/svg"
 width="575.000000pt" height="575.000000pt" viewBox="0 0 575.000000 575.000000"
 preserveAspectRatio="xMidYMid meet">
<metadata>
Created by potrace 1.11, written by Peter Selinger 2001-2013
</metadata>
<g transform="translate(0.000000,575.000000) scale(0.100000,-0.100000)"
fill="#000000" stroke="none">
<path d="M0 2875 l0 -2875 2875 0 2875 0 0 2875 0 2875 -2875 0 -2875 0 0
-2875z m5400 0 l0 -2525 -2525 0 -2525 0 0 2525 0 2525 2525 0 2525 0 0 -2525z"/>
<path d="M1100 2900 l0 -1800 300 0 300 0 0 370 c0 289 3 370 13 370 6 0 253
-65 547 -143 l535 -143 3 -227 2 -227 325 0 325 0 0 744 0 745 53 15 c78 22
585 156 592 156 3 0 5 -373 5 -830 l0 -830 300 0 300 0 0 1800 0 1800 -300 0
-300 0 -2 -787 -3 -787 -310 -83 c-170 -45 -316 -83 -322 -83 -10 0 -13 181
-13 870 l0 870 -325 0 -325 0 0 -346 0 -346 -27 6 c-60 15 -1010 268 -1040
277 l-33 11 0 199 0 199 -300 0 -300 0 0 -1800z m1160 886 l535 -142 3 -366 2
-366 -127 34 c-71 19 -318 84 -550 146 l-423 112 0 363 c0 284 3 363 13 363 6
-1 253 -65 547 -144z m2 -1096 c290 -77 530 -140 533 -140 3 0 5 -142 5 -315
0 -173 -3 -315 -6 -315 -7 0 -950 250 -1041 276 l-53 15 0 315 c0 296 1 315
18 310 9 -3 254 -68 544 -146z"/>
</g>
</svg>
